<svg xmlns="http://www.w3.org/2000/svg" width="458" height="472">
  <path d="M 63.561 71.276 L 109.967 82.602 L 46.395 342.607 L -0.01 331.281 Z" fill="rgb(246,197,159)"></path>
  <path d="M 109.969 82.606 L 156.376 93.932 L 92.803 353.937 L 46.398 342.611 Z" fill="rgb(84,75,98)"></path>
  <path d="M 156.388 93.939 L 202.795 105.265 L 139.222 365.27 L 92.815 353.944 Z M 249.577 115.94 L 295.984 127.266 L 232.411 387.271 L 186.005 375.945 Z" fill="rgb(255,255,255)"></path>
  <path d="M 374.781 409.09 L 298.342 387.76 L 361.899 127.75 L 438.348 149.07 Z" fill="rgb(219,39,74)"></path>
  <path d="M 237.773 162.67 C 236.021 161.39 233.859 160.75 231.297 160.75 L 226.042 160.75 L 226.042 311.25 L 231.297 311.25 C 234.33 311.25 236.672 310.61 238.303 309.33 C 239.935 308.05 241.106 306.3 241.806 304.08 C 242.507 301.87 242.857 299.12 242.857 295.85 L 242.857 176.15 C 242.857 173.12 242.447 170.44 241.636 168.1 C 240.806 165.77 239.524 163.96 237.773 162.67 Z" fill="transparent"></path>
  <path d="M 335.22 0 L 123.36 0 C 55.56 0 0.591 54.92 0.591 122.67 L 0.591 349.34 C 0.591 417.08 55.56 472 123.36 472 L 335.22 472 C 403.031 472 458 417.08 458 349.33 L 458 122.67 C 458 54.92 403.031 0 335.22 0 Z M 106.686 175.5 C 89.55 175.5 75.658 161.62 75.658 144.5 C 75.658 127.38 89.55 113.5 106.686 113.5 C 123.821 113.5 137.713 127.38 137.713 144.5 C 137.713 161.62 123.821 175.5 106.686 175.5 Z M 311.169 283.95 C 311.169 295.85 308.486 307.46 303.111 318.78 C 297.737 330.1 289.099 339.55 277.188 347.13 C 265.277 354.71 249.984 358.51 231.297 358.51 L 157.731 358.51 L 157.731 113.51 L 231.297 113.51 C 249.984 113.51 265.277 117.3 277.188 124.89 C 289.099 132.47 297.737 141.93 303.111 153.24 C 308.486 164.56 311.169 176.17 311.169 188.07 Z M 351.905 358.5 C 334.77 358.5 320.877 344.62 320.877 327.5 C 320.877 310.38 334.77 296.5 351.905 296.5 C 369.04 296.5 382.933 310.38 382.933 327.5 C 382.933 344.62 369.04 358.5 351.905 358.5 Z" fill="white"></path>
</svg>

