<svg xmlns="http://www.w3.org/2000/svg" width="457" height="472"><path d="M 236.97 162.67 C 235.22 161.39 233.06 160.75 230.5 160.75 L 225.25 160.75 L 225.25 311.25 L 230.5 311.25 C 233.53 311.25 235.87 310.61 237.5 309.33 C 239.13 308.05 240.3 306.3 241 304.08 C 241.7 301.87 242.05 299.12 242.05 295.85 L 242.05 176.15 C 242.05 173.12 241.64 170.44 240.83 168.1 C 240 165.77 238.72 163.96 236.97 162.67 Z" fill="rgb(31,191,142)"></path><path d="M 334.33 0 L 122.67 0 C 54.92 0 0 54.92 0 122.67 L 0 349.34 C 0 417.08 54.92 472 122.67 472 L 334.34 472 C 402.08 472 457 417.08 457 349.33 L 457 122.67 C 457 54.92 402.08 0 334.33 0 Z M 106 175.5 C 88.88 175.5 75 161.62 75 144.5 C 75 127.38 88.88 113.5 106 113.5 C 123.12 113.5 137 127.38 137 144.5 C 137 161.62 123.12 175.5 106 175.5 Z M 310.3 283.95 C 310.3 295.85 307.62 307.46 302.25 318.78 C 296.88 330.1 288.25 339.55 276.35 347.13 C 264.45 354.71 249.17 358.51 230.5 358.51 L 157 358.51 L 157 113.51 L 230.5 113.51 C 249.17 113.51 264.45 117.3 276.35 124.89 C 288.25 132.47 296.88 141.93 302.25 153.24 C 307.62 164.56 310.3 176.17 310.3 188.07 Z M 351 358.5 C 333.88 358.5 320 344.62 320 327.5 C 320 310.38 333.88 296.5 351 296.5 C 368.12 296.5 382 310.38 382 327.5 C 382 344.62 368.12 358.5 351 358.5 Z" fill="rgb(31,191,142)"></path></svg>