<svg xmlns="http://www.w3.org/2000/svg" width="90" height="93"><path d="M 24.197 14.044 L 33.317 16.275 L 20.824 67.505 L 11.705 65.274 Z" fill="rgb(246,197,159)"></path><path d="M 31.854 16.276 L 40.973 18.508 L 28.48 69.738 L 19.361 67.506 Z" fill="rgba(255, 243, 235, 1.00)"></path><path d="M 30.731 18.509 L 39.85 20.741 L 27.358 71.971 L 18.239 69.739 Z" fill="transparent"></path><path d="M 58.815 0 L 101.734 2.892 L 42.92 69.564 L 0 66.672 Z" transform="translate(-7.216 3.453) rotate(-21 50.867 34.782)" fill="rgba(255, 255, 255, 1.00)"></path><path d="M 72.602 82.069 L 57.581 77.866 L 70.071 26.636 L 85.093 30.836 Z" fill="rgb(219,39,74)"></path><path d="M 46.724 32.052 C 46.38 31.799 45.955 31.673 45.451 31.673 L 44.419 31.673 L 44.419 61.327 L 45.451 61.327 C 46.047 61.327 46.508 61.201 46.828 60.948 C 47.149 60.696 47.379 60.351 47.517 59.914 C 47.654 59.479 47.723 58.937 47.723 58.292 L 47.723 34.708 C 47.723 34.111 47.642 33.582 47.483 33.121 C 47.32 32.662 47.068 32.306 46.724 32.052 Z" fill="rgb(31,191,142)"></path><path d="M 65.873 0 L 24.241 0 C 10.918 0 0.116 10.821 0.116 24.17 L 0.116 68.832 C 0.116 82.179 10.918 93 24.241 93 L 65.873 93 C 79.198 93 90 82.179 90 68.83 L 90 24.17 C 90 10.821 79.198 0 65.873 0 Z M 20.964 34.579 C 17.597 34.579 14.867 31.845 14.867 28.471 C 14.867 25.098 17.597 22.363 20.964 22.363 C 24.332 22.363 27.062 25.098 27.062 28.471 C 27.062 31.845 24.332 34.579 20.964 34.579 Z M 61.147 55.948 C 61.147 58.292 60.62 60.58 59.563 62.81 C 58.507 65.041 56.81 66.903 54.469 68.396 C 52.129 69.89 49.123 70.639 45.451 70.639 L 30.995 70.639 L 30.995 22.365 L 45.451 22.365 C 49.123 22.365 52.129 23.112 54.469 24.608 C 56.81 26.101 58.507 27.965 59.563 30.193 C 60.62 32.424 61.147 34.711 61.147 37.056 Z M 69.152 70.637 C 65.784 70.637 63.054 67.902 63.054 64.529 C 63.054 61.155 65.784 58.421 69.152 58.421 C 72.519 58.421 75.249 61.155 75.249 64.529 C 75.249 67.902 72.519 70.637 69.152 70.637 Z" fill="rgb(31,191,142)"></path></svg>